# Blender v2.93.5 OBJ File: ''
# www.blender.org
mtllib player.mtl
o Cube
v 0.250000 0.147944 -0.075406
v 0.250000 -0.147944 -0.075406
v 0.382015 0.147944 0.424594
v 0.382015 -0.147944 0.424594
v -0.250000 0.147944 -0.075406
v -0.250000 -0.147944 -0.075406
v -0.382015 0.147944 0.424594
v -0.382015 -0.147944 0.424594
v 0.000000 -0.147944 -0.430603
v 0.000000 0.147944 0.194221
v 0.000000 -0.147944 0.194221
v 0.000000 0.147944 -0.430603
v -0.125000 -0.147944 -0.253005
v -0.233986 0.147944 0.294506
v -0.233986 -0.147944 0.294506
v -0.125000 0.147944 -0.253005
v 0.233986 -0.147944 0.294506
v 0.125000 0.147944 -0.253005
v 0.125000 -0.147944 -0.253005
v 0.233986 0.147944 0.294506
v -0.343443 -0.147944 0.174594
v 0.343443 0.147944 0.174594
v -0.343443 0.147944 0.174594
v 0.343443 -0.147944 0.174594
v 0.000000 -0.147944 -0.093469
v 0.000000 0.147944 -0.093469
v -0.179493 -0.147944 0.020751
v -0.179493 0.147944 0.020751
v 0.179493 0.147944 0.020751
v 0.179493 -0.147944 0.020751
vt 0.812500 0.625000
vt 0.875000 0.625000
vt 0.875000 0.750000
vt 0.812500 0.750000
vt 0.375000 0.937500
vt 0.625000 0.937500
vt 0.625000 1.000000
vt 0.375000 1.000000
vt 0.375000 0.125000
vt 0.625000 0.125000
vt 0.625000 0.250000
vt 0.375000 0.250000
vt 0.312500 0.625000
vt 0.375000 0.625000
vt 0.375000 0.750000
vt 0.312500 0.750000
vt 0.625000 0.625000
vt 0.625000 0.750000
vt 0.375000 0.437500
vt 0.625000 0.437500
vt 0.625000 0.500000
vt 0.375000 0.500000
vt 0.375000 0.312500
vt 0.625000 0.312500
vt 0.625000 0.375000
vt 0.375000 0.375000
vt 0.187500 0.625000
vt 0.250000 0.625000
vt 0.250000 0.750000
vt 0.187500 0.750000
vt 0.375000 0.812500
vt 0.625000 0.812500
vt 0.625000 0.875000
vt 0.375000 0.875000
vt 0.687500 0.625000
vt 0.750000 0.625000
vt 0.750000 0.750000
vt 0.687500 0.750000
vt 0.125000 0.625000
vt 0.125000 0.750000
vt 0.250000 0.500000
vt 0.312500 0.500000
vt 0.687500 0.500000
vt 0.750000 0.500000
vt 0.812500 0.500000
vt 0.125000 0.500000
vt 0.187500 0.500000
vt 0.375000 0.000000
vt 0.625000 0.000000
vt 0.875000 0.500000
vn 0.0000 1.0000 0.0000
vn 0.6601 0.0000 0.7512
vn -0.9367 0.0000 -0.3501
vn 0.0000 -1.0000 0.0000
vn 0.9883 0.0000 -0.1525
vn 0.8178 0.0000 -0.5756
vn -0.8178 0.0000 -0.5756
vn -0.3939 0.0000 0.9191
vn 0.3939 0.0000 0.9191
vn -0.6601 0.0000 0.7512
vn 0.9367 -0.0000 -0.3501
vn -0.9883 -0.0000 -0.1525
usemtl Material
s off
f 28/1/1 23/2/1 7/3/1 14/4/1
f 15/5/2 14/6/2 7/7/2 8/8/2
f 21/9/3 23/10/3 5/11/3 6/12/3
f 30/13/4 24/14/4 4/15/4 17/16/4
f 24/14/5 22/17/5 3/18/5 4/15/5
f 19/19/6 18/20/6 1/21/6 2/22/6
f 13/23/7 16/24/7 12/25/7 9/26/7
f 27/27/4 25/28/4 11/29/4 15/30/4
f 17/31/8 20/32/8 10/33/8 11/34/8
f 29/35/1 26/36/1 10/37/1 20/38/1
f 21/39/4 27/27/4 15/30/4 8/40/4
f 6/12/7 5/11/7 16/24/7 13/23/7
f 11/34/9 10/33/9 14/6/9 15/5/9
f 26/36/1 28/1/1 14/4/1 10/37/1
f 22/17/1 29/35/1 20/38/1 3/18/1
f 4/15/10 3/18/10 20/32/10 17/31/10
f 9/26/6 12/25/6 18/20/6 19/19/6
f 25/28/4 30/13/4 17/16/4 11/29/4
f 9/41/4 19/42/4 30/13/4 25/28/4
f 1/21/1 18/43/1 29/35/1 22/17/1
f 12/44/1 16/45/1 28/1/1 26/36/1
f 6/46/4 13/47/4 27/27/4 21/39/4
f 18/43/1 12/44/1 26/36/1 29/35/1
f 13/47/4 9/41/4 25/28/4 27/27/4
f 2/22/11 1/21/11 22/17/11 24/14/11
f 19/42/4 2/22/4 24/14/4 30/13/4
f 8/48/12 7/49/12 23/10/12 21/9/12
f 16/45/1 5/50/1 23/2/1 28/1/1
